# xmcd
#
# Track frame offsets:
#	150
#	17327
#	46903
#
# Disc length: 1049 seconds
# Revision: 0
# Processed by: cddbd v1.5.2PL0 Copyright (c) Steve Scherf et al.
# Submitted via: dBpowerAMP V12.0
#
DISCID=15041703
DTITLE=Ilse DeLange - The Lonely One [CDS-1)
DYEAR=2006
DGENRE=Country
TTITLE0=The Lonely One
TTITLE1=The Great Escape (Acoustic Version)
TTITLE2=DATA
EXTD=
EXTT0=
EXTT1=
EXTT2=
PLAYORDER=
